<svg viewBox="0 0 50 50" xmlns="http://www.w3.org/2000/svg">
<path d="M 33.919922 3.9609375 A 2.0002 2.0002 0 0 0 32.027344 5.671875 L 30.306641 16 L 20.361328 16 L 21.972656 6.328125 A 2.0002 2.0002 0 0 0 19.904297 3.9746094 A 2.0002 2.0002 0 0 0 18.027344 5.671875 L 16.306641 16 L 8 16 A 2.0002 2.0002 0 1 0 8 20 L 15.638672 20 L 14.306641 28 L 6 28 A 2.0002 2.0002 0 1 0 6 32 L 13.638672 32 L 12.027344 41.671875 A 2.0002 2.0002 0 1 0 15.972656 42.328125 L 17.693359 32 L 27.638672 32 L 26.027344 41.671875 A 2.0002 2.0002 0 1 0 29.972656 42.328125 L 31.693359 32 L 40 32 A 2.0002 2.0002 0 1 0 40 28 L 32.361328 28 L 33.693359 20 L 42 20 A 2.0002 2.0002 0 1 0 42 16 L 34.361328 16 L 35.972656 6.328125 A 2.0002 2.0002 0 0 0 33.919922 3.9609375 z M 19.693359 20 L 29.638672 20 L 28.306641 28 L 18.361328 28 L 19.693359 20 z"></path>
</svg>
